HIERARCHY
ROOT Hips
{
	OFFSET 0.00 0.00 0.00
	CHANNELS 6 Xposition Yposition Zposition Xrotation Yrotation Zrotation
	JOINT Spine
	{
		OFFSET 0.00000 7.50895 0.00000
		CHANNELS 3 Xrotation Yrotation Zrotation
		JOINT Head
		{
			OFFSET 0.00000 13.86115 0.00000
			CHANNELS 3 Xrotation Yrotation Zrotation
			End Site
			{
				OFFSET 0.00000 4.52755 0.00000
			}
		}
		JOINT LeftShoulder
		{
			OFFSET 0.00000 8.20478 0.00000
			CHANNELS 3 Xrotation Yrotation Zrotation
			JOINT LeftArm
			{
				OFFSET 6.63596 0.00000 0.00000
				CHANNELS 3 Xrotation Yrotation Zrotation
				JOINT LeftForeArm
				{
					OFFSET 10.27422 0.00000 0.00000
					CHANNELS 3 Yrotation Zrotation Xrotation
					JOINT LeftHand
					{
						OFFSET 8.52215 0.00000 0.00000
						CHANNELS 3 Xrotation Yrotation Zrotation
						JOINT LeftHandThumb1
						{
							OFFSET 0.00000 0.00000 0.00000
							CHANNELS 3 Xrotation Zrotation Yrotation
							End Site
							{
								OFFSET 0.00000 0.00000 3.93700
							}
						}
						End Site
						{
							OFFSET 3.93700 0.00000 0.00000
						}
					}
				}
			}
		}
		JOINT RightShoulder
		{
			OFFSET 0.00000 8.20478 0.00000
			CHANNELS 3 Xrotation Yrotation Zrotation
			JOINT RightArm
			{
				OFFSET -6.63596 0.00000 0.00000
				CHANNELS 3 Xrotation Yrotation Zrotation
				JOINT RightForeArm
				{
					OFFSET -10.27422 0.00000 0.00000
					CHANNELS 3 Yrotation Zrotation Xrotation
					JOINT RightHand
					{
						OFFSET -8.52215 0.00000 0.00000
						CHANNELS 3 Xrotation Yrotation Zrotation
						JOINT RightHandThumb1
						{
							OFFSET 0.00000 0.00000 0.00000
							CHANNELS 3 Xrotation Zrotation Yrotation
							End Site
							{
								OFFSET 0.00000 0.00000 3.93700
							}
						}
						End Site
						{
							OFFSET -3.93700 0.00000 0.00000
						}
					}
				}
			}
		}
	}
	JOINT LeftUpLeg
	{
		OFFSET 3.00056 0.00000 0.00000
		CHANNELS 3 Xrotation Yrotation Zrotation
		JOINT LeftLeg
		{
			OFFSET 0.00000 -16.49085 0.00000
			CHANNELS 3 Xrotation Yrotation Zrotation
			JOINT LeftFoot
			{
				OFFSET 0.00000 -14.55658 0.00000
				CHANNELS 3 Xrotation Yrotation Zrotation
				JOINT LeftToeBase
				{
					OFFSET 0.00000 -1.25038 4.66650
					CHANNELS 3 Xrotation Yrotation Zrotation
					End Site
					{
						OFFSET 0.00000 0.00000 2.95275
					}
				}
			}
		}
	}
	JOINT RightUpLeg
	{
		OFFSET -3.00056 0.00000 0.00000
		CHANNELS 3 Xrotation Yrotation Zrotation
		JOINT RightLeg
		{
			OFFSET 0.00000 -16.49085 0.00000
			CHANNELS 3 Xrotation Yrotation Zrotation
			JOINT RightFoot
			{
				OFFSET 0.00000 -14.55658 0.00000
				CHANNELS 3 Xrotation Yrotation Zrotation
				JOINT RightToeBase
				{
					OFFSET 0.00000 -1.25038 4.66650
					CHANNELS 3 Xrotation Yrotation Zrotation
					End Site
					{
						OFFSET 0.00000 0.00000 2.95275
					}
				}
			}
		}
	}
}
MOTION
Frames: 13
Frame Time: 0.008333
 -1.1206 32.9379 -2.7719 12.1016 6.5060 -1.8874 -13.7666 1.4892 0.6960 -8.9821 -7.0440 10.9763 8.1163 18.1506 27.7012 -30.6300 -3.0749 -25.6352 -14.5510 0.0000 14.6708 5.0886 23.6376 -12.5216 33.1476 -0.0000 26.2537 -22.4423 -9.3337 -37.1808 -3.3976 -8.7479 26.6104 13.7329 -0.0000 31.3231 2.4098 -9.6897 14.0384 32.8623 0.0000 -24.3270 -7.1545 3.8204 2.2235 0.2430 0.0000 0.0000 -9.6725 4.8977 -8.7176 9.6986 0.0000 -0.0000 -7.0135 -6.5694 0.2611 2.5431 0.0000 -0.0000 -10.0259 -4.7791 -2.0197 -0.1369 -0.0000 0.0000
 -1.1197 32.9374 -2.7730 12.0990 6.5111 -1.8900 -13.7564 1.4913 0.6993 -8.9804 -7.0343 10.9613 8.1187 18.1562 27.6948 -30.6639 -3.0711 -25.6291 -14.5580 0.0000 14.6098 5.1080 23.6461 -12.5639 33.1476 -0.0000 26.2537 -22.4459 -9.3318 -37.1853 -3.3903 -8.7569 26.6215 13.7603 -0.0000 31.3719 2.4169 -9.7291 14.0233 32.8623 0.0000 -24.3270 -7.1553 3.8312 2.2279 0.2346 0.0000 0.0000 -9.6749 4.8551 -8.6892 9.7178 -0.0000 0.0000 -7.0124 -6.5706 0.2598 2.5445 0.0000 0.0000 -10.0251 -4.7798 -2.0169 -0.1864 0.0000 -0.0000
 -1.1212 32.9376 -2.7740 12.0975 6.5128 -1.9015 -13.7506 1.4941 0.7056 -8.9672 -7.0198 10.9568 8.1172 18.1605 27.7084 -30.6762 -3.0651 -25.6440 -14.5539 0.0000 14.6740 5.0912 23.6034 -12.5443 33.1476 -0.0000 26.2537 -22.4407 -9.3444 -37.1741 -3.3761 -8.7316 26.6275 13.7349 -0.0000 31.3130 2.4068 -9.6591 14.0632 32.8623 0.0000 -24.3270 -7.1588 3.8295 2.2430 0.2366 -0.0000 -0.0000 -9.6753 4.8358 -8.6938 9.7006 -0.0000 0.0000 -7.0054 -6.5969 0.2689 2.5330 0.0000 0.0000 -10.0264 -4.7435 -1.9450 -0.0943 -0.0000 -0.0000
 -1.1185 32.9377 -2.7757 12.0978 6.5156 -1.8910 -13.7440 1.4952 0.6967 -8.9624 -7.0084 10.9382 8.0990 18.1500 27.7061 -30.6659 -3.0559 -25.6320 -14.5505 0.0000 14.6825 5.0804 23.5914 -12.5243 33.1476 -0.0000 26.2537 -22.4398 -9.3476 -37.1667 -3.3759 -8.7265 26.6257 13.7530 -0.0000 31.3239 2.4089 -9.6432 14.0977 32.8623 0.0000 -24.3270 -7.1616 3.8304 2.2257 0.2400 0.0000 -0.0000 -9.6751 4.8431 -8.7054 9.7484 -0.0000 0.0000 -7.0215 -6.5839 0.2570 2.5583 -0.0000 0.0000 -10.0421 -4.7722 -2.0045 -0.1216 -0.0000 -0.0000
 -1.1183 32.9377 -2.7774 12.0989 6.5211 -1.8956 -13.7427 1.4972 0.6985 -8.9410 -7.0023 10.9304 8.1001 18.1479 27.7111 -30.6679 -3.0520 -25.6339 -14.5615 0.0000 14.6770 5.0837 23.6153 -12.5206 33.1476 -0.0000 26.2537 -22.4516 -9.3431 -37.1668 -3.3736 -8.7262 26.6310 13.7546 -0.0000 31.3477 2.4050 -9.6329 14.0896 32.8623 0.0000 -24.3270 -7.1672 3.8285 2.2306 0.2393 -0.0000 0.0000 -9.6787 4.8471 -8.6936 9.7456 -0.0000 0.0000 -7.0151 -6.5886 0.2567 2.5400 0.0000 -0.0000 -10.0356 -4.7582 -1.9828 -0.0938 0.0000 0.0000
 -1.1163 32.9376 -2.7788 12.0984 6.5274 -1.8892 -13.7352 1.4986 0.6885 -8.9336 -6.9940 10.9312 8.0985 18.1549 27.7195 -30.6901 -3.0351 -25.6394 -14.5754 0.0000 14.7134 5.0971 23.5982 -12.5612 33.1476 -0.0000 26.2537 -22.4477 -9.3381 -37.1771 -3.3759 -8.7471 26.6488 13.7807 -0.0000 31.4471 2.4110 -9.6084 14.1578 32.8623 0.0000 -24.3270 -7.1661 3.8207 2.2197 0.2397 0.0000 0.0000 -9.6781 4.8375 -8.6830 9.7512 -0.0000 -0.0000 -7.0238 -6.5806 0.2494 2.5536 0.0000 -0.0000 -10.0371 -4.7866 -1.9996 -0.1171 -0.0000 -0.0000
 -1.1142 32.9378 -2.7807 12.1021 6.5343 -1.8815 -13.7342 1.5033 0.6796 -8.9256 -6.9847 10.9190 8.1090 18.1680 27.7189 -30.7300 -3.0343 -25.6494 -14.5757 0.0000 14.7224 5.0984 23.5866 -12.5697 33.1476 -0.0000 26.2537 -22.4554 -9.3238 -37.1943 -3.3614 -8.7927 26.6732 13.8415 -0.0000 31.5303 2.4152 -9.6077 14.1826 32.8623 0.0000 -24.3270 -7.1744 3.8111 2.2021 0.2501 0.0000 0.0000 -9.6651 4.8757 -8.7029 9.7109 -0.0000 -0.0000 -7.0370 -6.5832 0.2358 2.5657 0.0000 -0.0000 -10.0562 -4.7917 -1.9892 -0.0632 0.0000 0.0000
 -1.1131 32.9379 -2.7824 12.1006 6.5394 -1.8803 -13.7251 1.5037 0.6753 -8.9179 -6.9679 10.9156 8.1089 18.1704 27.7234 -30.7235 -3.0359 -25.6480 -14.5736 0.0000 14.6888 5.0997 23.5964 -12.5682 33.1476 -0.0000 26.2537 -22.4640 -9.3278 -37.1983 -3.3564 -8.7827 26.6882 13.8495 -0.0000 31.5379 2.4098 -9.6820 14.0487 32.8623 0.0000 -24.3270 -7.1805 3.8187 2.1986 0.2607 -0.0000 -0.0000 -9.6618 4.8597 -8.7201 9.6509 -0.0000 -0.0000 -7.0392 -6.5813 0.2330 2.5686 -0.0000 -0.0000 -10.0463 -4.8042 -2.0119 -0.1002 -0.0000 -0.0000
 -1.1126 32.9378 -2.7833 12.1029 6.5443 -1.8879 -13.7280 1.5065 0.6830 -8.8993 -6.9615 10.8991 8.0849 18.1531 27.7463 -30.7346 -2.9918 -25.6644 -14.6008 0.0000 14.7274 5.1163 23.5822 -12.6150 33.1476 -0.0000 26.2537 -22.4643 -9.3295 -37.2019 -3.3453 -8.7715 26.6901 13.8352 -0.0000 31.5300 2.3968 -9.5842 14.1113 32.8623 0.0000 -24.3270 -7.1818 3.8228 2.2088 0.2405 0.0000 0.0000 -9.6622 4.8167 -8.6775 9.6968 -0.0000 -0.0000 -7.0400 -6.5777 0.2383 2.5646 0.0000 -0.0000 -10.0482 -4.8079 -1.9927 -0.0887 -0.0000 0.0000
 -1.1118 32.9381 -2.7853 12.1017 6.5501 -1.8885 -13.7206 1.5061 0.6874 -8.8851 -6.9538 10.8737 8.0837 18.1485 27.7355 -30.7159 -2.9996 -25.6525 -14.6009 0.0000 14.6854 5.1160 23.6206 -12.5955 33.1476 -0.0000 26.2537 -22.4679 -9.3213 -37.1763 -3.3505 -8.7463 26.6373 13.7941 -0.0000 31.4241 2.4146 -9.5831 14.2135 32.8623 0.0000 -24.3270 -7.1845 3.8317 2.2075 0.2419 0.0000 0.0000 -9.6627 4.8010 -8.7003 9.7198 0.0000 0.0000 -7.0435 -6.5795 0.2374 2.5677 0.0000 -0.0000 -10.0504 -4.8146 -2.0008 -0.1109 -0.0000 -0.0000
 -1.1106 32.9381 -2.7861 12.1029 6.5452 -1.8890 -13.7246 1.5154 0.6915 -8.8632 -6.9872 10.8852 8.0909 18.1550 27.7365 -30.7492 -2.9864 -25.6595 -14.5970 0.0000 14.7043 5.1052 23.6058 -12.5767 33.1476 -0.0000 26.2537 -22.4645 -9.3111 -37.1854 -3.3367 -8.7583 26.6466 13.8086 -0.0000 31.4420 2.4188 -9.6132 14.1951 32.8623 0.0000 -24.3270 -7.1833 3.8432 2.2066 0.2346 0.0000 -0.0000 -9.6582 4.7894 -8.6981 9.7160 -0.0000 0.0000 -7.0463 -6.5669 0.2357 2.5677 -0.0000 0.0000 -10.0422 -4.8230 -2.0079 -0.0928 -0.0000 -0.0000
 -1.1101 32.9384 -2.7879 12.1039 6.5442 -1.8905 -13.7186 1.5191 0.6903 -8.8638 -6.9211 10.8639 8.0646 18.1478 27.7387 -30.7235 -2.9918 -25.6462 -14.5923 0.0000 14.6786 5.1142 23.6392 -12.5822 33.1476 -0.0000 26.2537 -22.4810 -9.3052 -37.1721 -3.3450 -8.7518 26.6225 13.8013 -0.0000 31.4359 2.4199 -9.5792 14.2489 32.8623 0.0000 -24.3270 -7.1871 3.8568 2.2065 0.2315 0.0000 -0.0000 -9.6546 4.7809 -8.6964 9.7143 -0.0000 0.0000 -7.0469 -6.5548 0.2374 2.5574 0.0000 0.0000 -10.0279 -4.8334 -2.0172 -0.1323 -0.0000 0.0000
 -1.1091 32.9386 -2.7892 12.1022 6.5566 -1.8927 -13.7123 1.5188 0.6898 -8.8594 -6.9124 10.8510 8.0621 18.1439 27.7413 -30.7390 -2.9747 -25.6483 -14.6084 0.0000 14.7080 5.1337 23.6665 -12.6156 33.1476 -0.0000 26.2537 -22.4782 -9.3132 -37.1684 -3.3685 -8.7562 26.6128 13.7968 -0.0000 31.4413 2.4287 -9.6127 14.2518 32.8623 0.0000 -24.3270 -7.1903 3.8439 2.2057 0.2347 -0.0000 0.0000 -9.6470 4.7886 -8.7075 9.7400 0.0000 -0.0000 -7.0485 -6.5860 0.2355 2.5637 -0.0000 -0.0000 -10.0307 -4.8203 -2.0073 -0.0989 0.0000 0.0000
